<?xml version="1.0" encoding="utf-8"?>
<!-- Generator: Adobe Illustrator 15.0.0, SVG Export Plug-In . SVG Version: 6.00 Build 0)  -->
<!DOCTYPE svg PUBLIC "-//W3C//DTD SVG 1.1//EN" "http://www.w3.org/Graphics/SVG/1.1/DTD/svg11.dtd">
<svg version="1.1" id="Layer_1" xmlns="http://www.w3.org/2000/svg" xmlns:xlink="http://www.w3.org/1999/xlink" x="0px" y="0px"
	 width="703.912px" height="381.953px" viewBox="0 0 703.912 381.953" enable-background="new 0 0 703.912 381.953"
	 xml:space="preserve">
	 <style type="text/css">
	 #aviable:hover{
		fill:#99DD1F  !important;
		opacity:0.9 !important;
		cursor:pointer;
	}
	#sold:hover{
		fill:#DD1F1F   !important;
		opacity:0.9 !important;
		cursor:pointer;
	}
	.current #aviable {
		fill:#99DD1F  !important;
		opacity:0.9 !important;
}
	svg:hover #overlay { fill: darkslateblue; opacity:0.41; }
</style>
<image overflow="visible" enable-background="new    " width="704" height="382" xlink:href="1.png"  transform="matrix(0.9999 0 0 0.9999 0 -4.882813e-004)">
</image>
<g >
	<polygon id="overlay" display="inline" opacity="0" fill="#FFFFFF" enable-background="new    " points="221.79,79.476 221.79,76.81 
		268.79,66.81 268.79,64.143 281.79,64.143 281.79,47.476 289.456,47.476 274.123,36.476 274.456,32.143 362.79,13.143 
		442.79,14.476 450.79,37.476 453.123,48.143 462.123,48.143 472.123,48.143 472.123,49.143 507.456,52.143 511.123,55.476 
		505.79,58.81 504.456,67.81 507.123,73.143 506.789,93.81 506.123,277.477 513.456,277.477 514.79,356.143 478.456,352.476 
		463.456,350.143 459.123,359.476 439.123,359.476 428.123,380.476 419.79,380.476 387.123,377.143 387.456,300.143 389.79,93.143 
		368.29,93.143 363.123,375.143 355.456,374.809 290.79,367.143 296.79,98.81 276.79,99.143 270.456,364.476 236.123,361.476 
		236.456,331.476 221.79,329.809 221.79,267.143 221.79,263.809 226.456,264.143 226.123,92.142 230.456,92.142 232.123,79.809 	"/>
</g>
<polygon  id="aviable" fill="#FFFFFF" opacity="0" points="330.123,311.144 341.456,309.144 353.456,309.144 356.123,312.144 364.456,312.144 370.79,309.144 
	384.123,309.144 387.123,312.144 395.456,312.144 427.123,312.144 437.123,305.477 459.456,305.477 459.456,327.81 437.79,327.81 
	427.79,333.144 387.123,333.144 384.456,330.144 369.79,330.144 364.123,333.144 356.123,333.144 351.835,330.06 340.077,330.06 
	330.123,335.477 "/>
<polygon id="aviable" fill="#FFFFFF" opacity="0" points="330.123,289.811 341.456,287.811 353.456,287.811 356.123,290.811 364.456,290.811 370.79,287.811 
	384.123,287.811 387.123,290.811 395.456,290.811 427.123,290.811 437.123,284.144 459.456,284.144 459.456,306.477 437.79,306.477 
	427.79,311.811 387.123,311.811 384.456,308.811 369.79,308.811 364.123,311.811 356.123,311.811 351.835,308.727 340.077,308.727 
	330.123,314.144 "/>
<rect id="aviable" opacity="0" x="459.456" y="306.477" fill="#FFFFFF" width="54.333" height="20.334"/>
<rect id="aviable" opacity="0" x="459.456" y="285.144" fill="#FFFFFF" width="54.333" height="20.334"/>
<rect id="aviable" opacity="0" x="459.456" y="261.207" fill="#FFFFFF" width="47.667" height="22.937"/>
<rect id="aviable" opacity="0" x="459.456" y="237.52" fill="#FFFFFF" width="47.667" height="22.937"/>
<rect id="sold" opacity="0" x="459.456" y="213.831" fill="#FFFFFF" width="47.667" height="22.937"/>
<rect id="sold" opacity="0" x="459.456" y="190.144" fill="#FFFFFF" width="47.667" height="22.937"/>
<rect id="aviable" opacity="0" x="459.456" y="165.874" fill="#FFFFFF" width="47.667" height="22.937"/>
<rect id="aviable" opacity="0" x="459.456" y="142.186" fill="#FFFFFF" width="47.667" height="22.937"/>
<rect id="aviable" opacity="0"  x="438.79" y="118.498" fill="#FFFFFF" width="68.333" height="22.937"/>
<rect id="sold" opacity="0" x="438.79" y="94.81" fill="#FFFFFF" width="68.333" height="22.937"/>
<rect id="aviable" opacity="0" x="438.79" y="70.874" fill="#FFFFFF" width="68.333" height="22.937"/>


 


</svg>
